# Blender v2.80 (sub 75) OBJ File: ''
# www.blender.org
o Icosphere.001
v 0.000000 -100.000000 0.000000
v 72.360733 -44.721951 52.572529
v -27.638802 -44.721985 85.064926
v -89.442619 -44.721561 0.000000
v -27.638802 -44.721985 -85.064926
v 72.360733 -44.721951 -52.572529
v 27.638802 44.721985 85.064926
v -72.360733 44.721951 52.572529
v -72.360733 44.721951 -52.572529
v 27.638802 44.721985 -85.064926
v 89.442619 44.721561 0.000000
v 0.000000 100.000000 0.000000
v -23.282152 -65.751923 71.656311
v -16.245556 -85.065445 49.999523
v -7.760664 -96.794968 23.885271
v 20.318090 -96.794960 14.761785
v 42.532269 -85.065422 30.901136
v 60.954666 -65.751884 44.285641
v 53.194088 -50.230171 68.171242
v 26.286882 -52.573765 80.901161
v -2.963927 -50.230194 86.418419
v 81.272926 -50.230061 -29.523771
v 85.064789 -52.573593 0.000000
v 81.272926 -50.230061 29.523771
v 20.318090 -96.794960 -14.761785
v 42.532269 -85.065422 -30.901136
v 60.954666 -65.751884 -44.285641
v -75.344170 -65.751472 0.000000
v -52.572979 -85.065170 0.000000
v -25.114697 -96.794884 0.000000
v -48.397141 -50.230171 71.656456
v -68.818939 -52.573620 49.999691
v -83.105064 -50.229866 23.885340
v -23.282152 -65.751923 -71.656311
v -16.245556 -85.065445 -49.999523
v -7.760664 -96.794968 -23.885271
v -83.105064 -50.229866 -23.885342
v -68.818939 -52.573620 -49.999695
v -48.397141 -50.230171 -71.656456
v -2.963927 -50.230194 -86.418419
v 26.286882 -52.573765 -80.901169
v 53.194088 -50.230171 -68.171242
v 95.662575 25.114944 14.761837
v 95.105782 -0.000002 30.901262
v 86.069763 -25.115086 44.285755
v 86.069763 -25.115086 -44.285755
v 95.105782 0.000002 -30.901262
v 95.662575 25.114944 -14.761837
v 15.521510 25.115152 95.542206
v 0.000000 -0.000002 99.999992
v -15.521510 -25.115152 95.542206
v 68.715858 -25.115192 68.171532
v 58.778561 0.000002 80.901672
v 43.600681 25.115204 86.418793
v -86.069763 25.115086 44.285755
v -95.105782 -0.000002 30.901262
v -95.662575 -25.114944 14.761837
v -43.600681 -25.115204 86.418793
v -58.778561 0.000002 80.901680
v -68.715851 25.115189 68.171532
v -68.715858 25.115192 -68.171532
v -58.778561 -0.000002 -80.901672
v -43.600681 -25.115204 -86.418793
v -95.662575 -25.114944 -14.761837
v -95.105782 0.000002 -30.901262
v -86.069763 25.115086 -44.285755
v 43.600681 25.115204 -86.418793
v 58.778561 -0.000002 -80.901680
v 68.715851 -25.115189 -68.171532
v -15.521510 -25.115152 -95.542206
v 0.000000 0.000002 -99.999992
v 15.521510 25.115152 -95.542206
v 83.105064 50.229866 23.885342
v 68.818939 52.573620 49.999695
v 48.397141 50.230171 71.656456
v 2.963927 50.230194 86.418419
v -26.286882 52.573765 80.901169
v -53.194088 50.230171 68.171242
v -81.272926 50.230061 29.523771
v -85.064789 52.573593 0.000000
v -81.272926 50.230061 -29.523771
v -53.194088 50.230171 -68.171242
v -26.286882 52.573765 -80.901161
v 2.963927 50.230194 -86.418419
v 48.397141 50.230171 -71.656456
v 68.818939 52.573620 -49.999691
v 83.105064 50.229866 -23.885340
v 7.760664 96.794968 23.885273
v 16.245556 85.065445 49.999527
v 23.282152 65.751923 71.656311
v 75.344170 65.751472 0.000000
v 52.572979 85.065170 0.000000
v 25.114697 96.794884 0.000000
v -20.318090 96.794960 14.761785
v -42.532269 85.065422 30.901136
v -60.954666 65.751884 44.285641
v -20.318090 96.794960 -14.761785
v -42.532269 85.065422 -30.901136
v -60.954666 65.751884 -44.285641
v 7.760664 96.794968 -23.885273
v 16.245556 85.065445 -49.999527
v 23.282152 65.751923 -71.656311
v 36.180031 89.442917 -26.286295
v 63.819355 72.361008 -26.286411
v 44.720917 72.361160 -52.572815
v -13.819726 89.442993 -42.531948
v -5.278957 72.361237 -68.818489
v -36.180367 72.361221 -58.777843
v -44.720989 89.442909 0.000000
v -67.081657 72.361084 -16.245703
v -67.081657 72.361084 16.245703
v -13.819729 89.442993 42.531948
v -36.180367 72.361221 58.777843
v -5.278957 72.361237 68.818489
v 36.180031 89.442917 26.286295
v 44.720921 72.361168 52.572815
v 63.819355 72.361008 26.286407
v 86.180420 27.639622 -42.532196
v 80.901924 0.000000 -58.778210
v 67.082054 27.639740 -68.818916
v -13.819853 27.639708 -95.105515
v -30.901646 -0.000049 -95.105667
v -44.721504 27.639727 -85.064873
v -94.721321 27.639589 -16.245764
v -99.999992 0.000062 0.000036
v -94.721291 27.639658 16.245789
v -44.721577 27.639685 85.064842
v -30.901718 -0.000079 95.105644
v -13.819925 27.639679 95.105515
v 67.082039 27.639616 68.818977
v 80.901871 -0.000190 58.778297
v 86.180412 27.639442 42.532318
v 30.901722 -0.000000 -95.105644
v 44.721558 -27.639771 -85.064842
v 13.819907 -27.639753 -95.105492
v -80.901840 -0.000000 -58.778328
v -67.081902 -27.639729 -68.819069
v -86.180313 -27.639633 -42.532394
v -80.901840 0.000000 58.778328
v -86.180321 -27.639633 42.532394
v -67.081902 -27.639729 68.819069
v 30.901722 0.000000 95.105644
v 13.819909 -27.639753 95.105492
v 44.721561 -27.639771 85.064827
v 100.000000 0.000000 0.000000
v 94.721321 -27.639603 16.245754
v 94.721321 -27.639603 -16.245756
v 36.180347 -72.361160 -58.777924
v 13.819679 -89.442909 -42.532131
v 5.278910 -72.361092 -68.818626
v -44.721058 -72.361153 -52.572708
v -36.180122 -89.442894 -26.286253
v -63.819473 -72.360947 -26.286283
v -63.819458 -72.360924 26.286369
v -36.180134 -89.442841 26.286434
v -44.721050 -72.361046 52.572865
v 67.081703 -72.361061 -16.245680
v 67.081757 -72.361008 16.245775
v 44.721096 -89.442848 0.000074
v 5.279035 -72.361176 68.818535
v 13.819869 -89.442917 42.532063
v 36.180496 -72.361092 58.777916
vt 0.818181 0.000000
vt 0.795454 0.039365
vt 0.840908 0.039365
vt 0.727272 0.157461
vt 0.704545 0.118096
vt 0.681817 0.157461
vt 0.090909 0.000000
vt 0.068182 0.039365
vt 0.113636 0.039365
vt 0.272727 0.000000
vt 0.250000 0.039365
vt 0.295454 0.039365
vt 0.454545 0.000000
vt 0.431818 0.039365
vt 0.477272 0.039365
vt 0.704545 0.196826
vt 0.909090 0.157461
vt 0.863635 0.157461
vt 0.886363 0.196826
vt 0.181818 0.157461
vt 0.136363 0.157461
vt 0.159091 0.196826
vt 0.363636 0.157461
vt 0.318181 0.157461
vt 0.340909 0.196826
vt 0.545454 0.157461
vt 0.500000 0.157461
vt 0.522727 0.196826
vt 0.749999 0.196826
vt 0.931817 0.196826
vt 0.204545 0.196826
vt 0.386363 0.196826
vt 0.568181 0.196826
vt 0.818181 0.314921
vt 0.772727 0.314921
vt 0.795454 0.354286
vt 1.000000 0.314921
vt 0.954545 0.314921
vt 0.977272 0.354286
vt 0.272727 0.314921
vt 0.227273 0.314921
vt 0.250000 0.354286
vt 0.454545 0.314921
vt 0.409091 0.314921
vt 0.431818 0.354286
vt 0.636363 0.314921
vt 0.590909 0.314921
vt 0.613636 0.354286
vt 0.568181 0.433017
vt 0.522727 0.433017
vt 0.545454 0.472382
vt 0.590909 0.393651
vt 0.545454 0.393651
vt 0.568181 0.354286
vt 0.499999 0.393651
vt 0.522727 0.354286
vt 0.477272 0.354286
vt 0.545454 0.314921
vt 0.499999 0.314921
vt 0.386363 0.433017
vt 0.340909 0.433017
vt 0.363636 0.472382
vt 0.409090 0.393651
vt 0.363636 0.393651
vt 0.386363 0.354286
vt 0.318181 0.393651
vt 0.340909 0.354286
vt 0.295454 0.354286
vt 0.363636 0.314921
vt 0.318182 0.314921
vt 0.204545 0.433017
vt 0.159091 0.433017
vt 0.181818 0.472382
vt 0.227272 0.393651
vt 0.181818 0.393651
vt 0.204545 0.354286
vt 0.136363 0.393651
vt 0.159091 0.354286
vt 0.113636 0.354286
vt 0.181818 0.314921
vt 0.136364 0.314921
vt 0.090909 0.314921
vt 0.931817 0.433017
vt 0.886363 0.433017
vt 0.909090 0.472382
vt 0.954545 0.393651
vt 0.909090 0.393651
vt 0.931818 0.354286
vt 0.863635 0.393651
vt 0.886363 0.354286
vt 0.840908 0.354286
vt 0.909090 0.314921
vt 0.863636 0.314921
vt 0.749999 0.433017
vt 0.704545 0.433017
vt 0.727272 0.472382
vt 0.772726 0.393651
vt 0.727272 0.393651
vt 0.749999 0.354286
vt 0.681817 0.393651
vt 0.704545 0.354286
vt 0.659090 0.354286
vt 0.727272 0.314921
vt 0.681818 0.314921
vt 0.613636 0.275556
vt 0.590909 0.236191
vt 0.568181 0.275556
vt 0.545454 0.236191
vt 0.522727 0.275556
vt 0.499999 0.236191
vt 0.477272 0.275556
vt 0.431818 0.275556
vt 0.409090 0.236191
vt 0.386363 0.275556
vt 0.363636 0.236191
vt 0.340909 0.275556
vt 0.318181 0.236191
vt 0.295454 0.275556
vt 0.250000 0.275556
vt 0.227272 0.236191
vt 0.204545 0.275556
vt 0.181818 0.236191
vt 0.159091 0.275556
vt 0.136363 0.236191
vt 0.113636 0.275556
vt 0.977272 0.275556
vt 0.954545 0.236191
vt 0.931818 0.275556
vt 0.909090 0.236191
vt 0.886363 0.275556
vt 0.863635 0.236191
vt 0.840908 0.275556
vt 0.795454 0.275556
vt 0.772726 0.236191
vt 0.749999 0.275556
vt 0.727272 0.236191
vt 0.704545 0.275556
vt 0.681817 0.236191
vt 0.659090 0.275556
vt 0.454545 0.236191
vt 0.477272 0.196826
vt 0.431818 0.196826
vt 0.454545 0.157461
vt 0.409090 0.157461
vt 0.272727 0.236191
vt 0.295454 0.196826
vt 0.250000 0.196826
vt 0.272727 0.157461
vt 0.227272 0.157461
vt 0.068182 0.275556
vt 0.090909 0.236191
vt 0.113636 0.196826
vt 0.045454 0.236191
vt 0.068182 0.196826
vt 0.022727 0.196826
vt 0.090909 0.157461
vt 0.045454 0.157461
vt 0.000000 0.157461
vt 0.818181 0.236191
vt 0.840908 0.196826
vt 0.795454 0.196826
vt 0.818181 0.157461
vt 0.772726 0.157461
vt 0.636363 0.236191
vt 0.659090 0.196826
vt 0.613636 0.196826
vt 0.636363 0.157461
vt 0.590909 0.157461
vt 0.522727 0.118096
vt 0.499999 0.078731
vt 0.477272 0.118096
vt 0.454545 0.078731
vt 0.431818 0.118096
vt 0.409090 0.078731
vt 0.386363 0.118096
vt 0.340909 0.118096
vt 0.318181 0.078731
vt 0.295454 0.118096
vt 0.272727 0.078731
vt 0.250000 0.118096
vt 0.227272 0.078731
vt 0.204545 0.118096
vt 0.159091 0.118096
vt 0.136363 0.078731
vt 0.113636 0.118096
vt 0.090909 0.078731
vt 0.068182 0.118096
vt 0.045454 0.078731
vt 0.022727 0.118096
vt 0.568181 0.118096
vt 0.613636 0.118096
vt 0.659090 0.118096
vt 0.590909 0.078731
vt 0.636363 0.078730
vt 0.613636 0.039365
vt 0.681817 0.078731
vt 0.659090 0.039365
vt 0.636363 0.000000
vt 0.886363 0.118096
vt 0.863635 0.078731
vt 0.840908 0.118096
vt 0.818181 0.078731
vt 0.795454 0.118096
vt 0.772726 0.078731
vt 0.749999 0.118096
vn 0.0000 -1.0000 0.0000
vn 0.2109 -0.9654 0.1533
vn -0.0806 -0.9654 0.2480
vn 0.7236 -0.4472 0.5257
vn 0.6042 -0.6650 0.4390
vn 0.8152 -0.5038 0.2857
vn -0.2608 -0.9654 0.0000
vn -0.0806 -0.9654 -0.2480
vn 0.2109 -0.9654 -0.1533
vn 0.8650 -0.2430 0.4390
vn -0.2764 -0.4472 0.8506
vn -0.0198 -0.5038 0.8636
vn -0.1502 -0.2430 0.9583
vn -0.8944 -0.4472 0.0000
vn -0.8274 -0.5038 0.2480
vn -0.9578 -0.2430 0.1533
vn -0.2764 -0.4472 -0.8506
vn -0.4915 -0.5038 -0.7103
vn -0.4417 -0.2430 -0.8636
vn 0.7236 -0.4472 -0.5257
vn 0.5236 -0.5038 -0.6870
vn 0.6848 -0.2430 -0.6870
vn 0.6848 -0.2430 0.6870
vn -0.4417 -0.2430 0.8636
vn -0.9578 -0.2430 -0.1533
vn -0.1502 -0.2430 -0.9583
vn 0.8650 -0.2430 -0.4390
vn 0.2764 0.4472 0.8506
vn 0.4915 0.5038 0.7103
vn 0.2308 0.6650 0.7103
vn -0.7236 0.4472 0.5257
vn -0.5236 0.5038 0.6870
vn -0.6042 0.6650 0.4390
vn -0.7236 0.4472 -0.5257
vn -0.8152 0.5038 -0.2857
vn -0.6042 0.6650 -0.4390
vn 0.2764 0.4472 -0.8506
vn 0.0198 0.5038 -0.8636
vn 0.2308 0.6650 -0.7103
vn 0.8944 0.4472 0.0000
vn 0.8274 0.5038 -0.2480
vn 0.7468 0.6650 0.0000
vn 0.2608 0.9654 0.0000
vn 0.0806 0.9654 -0.2480
vn 0.0000 1.0000 0.0000
vn 0.5257 0.8506 0.0000
vn 0.3682 0.8904 -0.2675
vn 0.6317 0.7275 -0.2675
vn 0.1625 0.8506 -0.5000
vn 0.4496 0.7275 -0.5181
vn 0.6882 0.5257 -0.5000
vn 0.4915 0.5038 -0.7103
vn -0.2109 0.9654 -0.1532
vn -0.1406 0.8904 -0.4328
vn -0.0592 0.7275 -0.6835
vn -0.4253 0.8506 -0.3090
vn -0.3538 0.7275 -0.5877
vn -0.2629 0.5257 -0.8090
vn -0.5236 0.5038 -0.6870
vn -0.2109 0.9654 0.1532
vn -0.4551 0.8904 0.0000
vn -0.6683 0.7275 -0.1549
vn -0.4253 0.8506 0.3090
vn -0.6683 0.7275 0.1549
vn -0.8506 0.5257 0.0000
vn -0.8152 0.5038 0.2857
vn 0.0806 0.9654 0.2480
vn -0.1406 0.8904 0.4328
vn -0.3538 0.7275 0.5877
vn 0.1625 0.8506 0.5000
vn -0.0592 0.7275 0.6835
vn -0.2629 0.5257 0.8090
vn 0.0198 0.5038 0.8636
vn 0.3682 0.8904 0.2675
vn 0.4496 0.7275 0.5181
vn 0.6317 0.7275 0.2675
vn 0.6882 0.5257 0.5000
vn 0.8274 0.5038 0.2480
vn 0.9578 0.2430 -0.1533
vn 0.9510 0.0000 -0.3090
vn 0.8593 0.2724 -0.4328
vn 0.8090 0.0089 -0.5878
vn 0.6772 0.2724 -0.6835
vn 0.5878 0.0000 -0.8090
vn 0.4417 0.2430 -0.8636
vn 0.1502 0.2430 -0.9583
vn 0.0000 0.0000 -1.0000
vn -0.1461 0.2724 -0.9510
vn -0.3090 0.0089 -0.9510
vn -0.4407 0.2724 -0.8553
vn -0.5878 0.0000 -0.8090
vn -0.6848 0.2430 -0.6870
vn -0.8650 0.2430 -0.4390
vn -0.9510 0.0000 -0.3090
vn -0.9496 0.2724 -0.1549
vn -0.9999 0.0089 0.0000
vn -0.9496 0.2724 0.1549
vn -0.9510 0.0000 0.3090
vn -0.8650 0.2430 0.4390
vn -0.6848 0.2430 0.6870
vn -0.5878 0.0000 0.8090
vn -0.4407 0.2724 0.8553
vn -0.3090 0.0089 0.9510
vn -0.1461 0.2724 0.9510
vn 0.0000 0.0000 1.0000
vn 0.1502 0.2430 0.9583
vn 0.4417 0.2430 0.8636
vn 0.5878 0.0000 0.8090
vn 0.6772 0.2724 0.6835
vn 0.8090 0.0089 0.5878
vn 0.8593 0.2724 0.4328
vn 0.9510 0.0000 0.3090
vn 0.9578 0.2430 0.1533
vn 0.3090 -0.0089 -0.9510
vn 0.4407 -0.2724 -0.8553
vn 0.1461 -0.2724 -0.9510
vn 0.2629 -0.5257 -0.8090
vn -0.0198 -0.5038 -0.8636
vn -0.8090 -0.0089 -0.5878
vn -0.6772 -0.2724 -0.6835
vn -0.8593 -0.2724 -0.4328
vn -0.6882 -0.5257 -0.5000
vn -0.8274 -0.5038 -0.2480
vn -0.8090 -0.0089 0.5878
vn -0.8593 -0.2724 0.4328
vn -0.6772 -0.2724 0.6835
vn -0.6882 -0.5257 0.5000
vn -0.4915 -0.5038 0.7103
vn 0.3090 -0.0089 0.9510
vn 0.1461 -0.2724 0.9510
vn 0.4407 -0.2724 0.8553
vn 0.2629 -0.5257 0.8090
vn 0.5236 -0.5038 0.6870
vn 0.9999 -0.0089 0.0000
vn 0.9496 -0.2724 0.1549
vn 0.9496 -0.2724 -0.1549
vn 0.8506 -0.5257 0.0000
vn 0.8152 -0.5038 -0.2857
vn 0.6042 -0.6650 -0.4390
vn 0.4253 -0.8506 -0.3090
vn 0.3538 -0.7275 -0.5878
vn 0.1406 -0.8904 -0.4328
vn 0.0592 -0.7275 -0.6835
vn -0.1625 -0.8506 -0.5000
vn -0.2308 -0.6650 -0.7103
vn -0.4496 -0.7275 -0.5181
vn -0.3682 -0.8904 -0.2675
vn -0.6317 -0.7275 -0.2675
vn -0.5257 -0.8506 0.0000
vn -0.7468 -0.6650 0.0000
vn -0.6317 -0.7275 0.2675
vn -0.3682 -0.8904 0.2675
vn -0.4496 -0.7275 0.5181
vn -0.1625 -0.8506 0.5000
vn -0.2308 -0.6650 0.7103
vn 0.6683 -0.7275 -0.1549
vn 0.6683 -0.7275 0.1549
vn 0.4551 -0.8904 0.0000
vn 0.4253 -0.8506 0.3090
vn 0.0592 -0.7275 0.6835
vn 0.1406 -0.8904 0.4328
vn 0.3538 -0.7275 0.5878
s 1
f 1/1/1 16/2/2 15/3/3
f 2/4/4 18/5/5 24/6/6
f 1/7/1 15/8/3 30/9/7
f 1/10/1 30/11/7 36/12/8
f 1/13/1 36/14/8 25/15/9
f 2/4/4 24/6/6 45/16/10
f 3/17/11 21/18/12 51/19/13
f 4/20/14 33/21/15 57/22/16
f 5/23/17 39/24/18 63/25/19
f 6/26/20 42/27/21 69/28/22
f 2/4/4 45/16/10 52/29/23
f 3/17/11 51/19/13 58/30/24
f 4/20/14 57/22/16 64/31/25
f 5/23/17 63/25/19 70/32/26
f 6/26/20 69/28/22 46/33/27
f 7/34/28 75/35/29 90/36/30
f 8/37/31 78/38/32 96/39/33
f 9/40/34 81/41/35 99/42/36
f 10/43/37 84/44/38 102/45/39
f 11/46/40 87/47/41 91/48/42
f 93/49/43 100/50/44 12/51/45
f 92/52/46 103/53/47 93/49/43
f 91/48/42 104/54/48 92/52/46
f 93/49/43 103/53/47 100/50/44
f 103/53/47 101/55/49 100/50/44
f 92/52/46 104/54/48 103/53/47
f 104/54/48 105/56/50 103/53/47
f 103/53/47 105/56/50 101/55/49
f 105/56/50 102/57/39 101/55/49
f 91/48/42 87/47/41 104/54/48
f 87/47/41 86/58/51 104/54/48
f 104/54/48 86/58/51 105/56/50
f 86/58/51 85/59/52 105/56/50
f 105/56/50 85/59/52 102/57/39
f 85/59/52 10/43/37 102/57/39
f 100/60/44 97/61/53 12/62/45
f 101/63/49 106/64/54 100/60/44
f 102/45/39 107/65/55 101/63/49
f 100/60/44 106/64/54 97/61/53
f 106/64/54 98/66/56 97/61/53
f 101/63/49 107/65/55 106/64/54
f 107/65/55 108/67/57 106/64/54
f 106/64/54 108/67/57 98/66/56
f 108/67/57 99/68/36 98/66/56
f 102/45/39 84/44/38 107/65/55
f 84/44/38 83/69/58 107/65/55
f 107/65/55 83/69/58 108/67/57
f 83/69/58 82/70/59 108/67/57
f 108/67/57 82/70/59 99/68/36
f 82/70/59 9/40/34 99/68/36
f 97/71/53 94/72/60 12/73/45
f 98/74/56 109/75/61 97/71/53
f 99/42/36 110/76/62 98/74/56
f 97/71/53 109/75/61 94/72/60
f 109/75/61 95/77/63 94/72/60
f 98/74/56 110/76/62 109/75/61
f 110/76/62 111/78/64 109/75/61
f 109/75/61 111/78/64 95/77/63
f 111/78/64 96/79/33 95/77/63
f 99/42/36 81/41/35 110/76/62
f 81/41/35 80/80/65 110/76/62
f 110/76/62 80/80/65 111/78/64
f 80/80/65 79/81/66 111/78/64
f 111/78/64 79/81/66 96/79/33
f 79/81/66 8/82/31 96/79/33
f 94/83/60 88/84/67 12/85/45
f 95/86/63 112/87/68 94/83/60
f 96/39/33 113/88/69 95/86/63
f 94/83/60 112/87/68 88/84/67
f 112/87/68 89/89/70 88/84/67
f 95/86/63 113/88/69 112/87/68
f 113/88/69 114/90/71 112/87/68
f 112/87/68 114/90/71 89/89/70
f 114/90/71 90/91/30 89/89/70
f 96/39/33 78/38/32 113/88/69
f 78/38/32 77/92/72 113/88/69
f 113/88/69 77/92/72 114/90/71
f 77/92/72 76/93/73 114/90/71
f 114/90/71 76/93/73 90/91/30
f 76/93/73 7/34/28 90/91/30
f 88/94/67 93/95/43 12/96/45
f 89/97/70 115/98/74 88/94/67
f 90/36/30 116/99/75 89/97/70
f 88/94/67 115/98/74 93/95/43
f 115/98/74 92/100/46 93/95/43
f 89/97/70 116/99/75 115/98/74
f 116/99/75 117/101/76 115/98/74
f 115/98/74 117/101/76 92/100/46
f 117/101/76 91/102/42 92/100/46
f 90/36/30 75/35/29 116/99/75
f 75/35/29 74/103/77 116/99/75
f 116/99/75 74/103/77 117/101/76
f 74/103/77 73/104/78 117/101/76
f 117/101/76 73/104/78 91/102/42
f 73/104/78 11/46/40 91/102/42
f 48/105/79 87/47/41 11/46/40
f 47/106/80 118/107/81 48/105/79
f 46/33/27 119/108/82 47/106/80
f 48/105/79 118/107/81 87/47/41
f 118/107/81 86/58/51 87/47/41
f 47/106/80 119/108/82 118/107/81
f 119/108/82 120/109/83 118/107/81
f 118/107/81 120/109/83 86/58/51
f 120/109/83 85/59/52 86/58/51
f 46/33/27 69/28/22 119/108/82
f 69/28/22 68/110/84 119/108/82
f 119/108/82 68/110/84 120/109/83
f 68/110/84 67/111/85 120/109/83
f 120/109/83 67/111/85 85/59/52
f 67/111/85 10/43/37 85/59/52
f 72/112/86 84/44/38 10/43/37
f 71/113/87 121/114/88 72/112/86
f 70/32/26 122/115/89 71/113/87
f 72/112/86 121/114/88 84/44/38
f 121/114/88 83/69/58 84/44/38
f 71/113/87 122/115/89 121/114/88
f 122/115/89 123/116/90 121/114/88
f 121/114/88 123/116/90 83/69/58
f 123/116/90 82/70/59 83/69/58
f 70/32/26 63/25/19 122/115/89
f 63/25/19 62/117/91 122/115/89
f 122/115/89 62/117/91 123/116/90
f 62/117/91 61/118/92 123/116/90
f 123/116/90 61/118/92 82/70/59
f 61/118/92 9/40/34 82/70/59
f 66/119/93 81/41/35 9/40/34
f 65/120/94 124/121/95 66/119/93
f 64/31/25 125/122/96 65/120/94
f 66/119/93 124/121/95 81/41/35
f 124/121/95 80/80/65 81/41/35
f 65/120/94 125/122/96 124/121/95
f 125/122/96 126/123/97 124/121/95
f 124/121/95 126/123/97 80/80/65
f 126/123/97 79/81/66 80/80/65
f 64/31/25 57/22/16 125/122/96
f 57/22/16 56/124/98 125/122/96
f 125/122/96 56/124/98 126/123/97
f 56/124/98 55/125/99 126/123/97
f 126/123/97 55/125/99 79/81/66
f 55/125/99 8/82/31 79/81/66
f 60/126/100 78/38/32 8/37/31
f 59/127/101 127/128/102 60/126/100
f 58/30/24 128/129/103 59/127/101
f 60/126/100 127/128/102 78/38/32
f 127/128/102 77/92/72 78/38/32
f 59/127/101 128/129/103 127/128/102
f 128/129/103 129/130/104 127/128/102
f 127/128/102 129/130/104 77/92/72
f 129/130/104 76/93/73 77/92/72
f 58/30/24 51/19/13 128/129/103
f 51/19/13 50/131/105 128/129/103
f 128/129/103 50/131/105 129/130/104
f 50/131/105 49/132/106 129/130/104
f 129/130/104 49/132/106 76/93/73
f 49/132/106 7/34/28 76/93/73
f 54/133/107 75/35/29 7/34/28
f 53/134/108 130/135/109 54/133/107
f 52/29/23 131/136/110 53/134/108
f 54/133/107 130/135/109 75/35/29
f 130/135/109 74/103/77 75/35/29
f 53/134/108 131/136/110 130/135/109
f 131/136/110 132/137/111 130/135/109
f 130/135/109 132/137/111 74/103/77
f 132/137/111 73/104/78 74/103/77
f 52/29/23 45/16/10 131/136/110
f 45/16/10 44/138/112 131/136/110
f 131/136/110 44/138/112 132/137/111
f 44/138/112 43/139/113 132/137/111
f 132/137/111 43/139/113 73/104/78
f 43/139/113 11/46/40 73/104/78
f 67/111/85 72/112/86 10/43/37
f 68/110/84 133/140/114 67/111/85
f 69/28/22 134/141/115 68/110/84
f 67/111/85 133/140/114 72/112/86
f 133/140/114 71/113/87 72/112/86
f 68/110/84 134/141/115 133/140/114
f 134/141/115 135/142/116 133/140/114
f 133/140/114 135/142/116 71/113/87
f 135/142/116 70/32/26 71/113/87
f 69/28/22 42/27/21 134/141/115
f 42/27/21 41/143/117 134/141/115
f 134/141/115 41/143/117 135/142/116
f 41/143/117 40/144/118 135/142/116
f 135/142/116 40/144/118 70/32/26
f 40/144/118 5/23/17 70/32/26
f 61/118/92 66/119/93 9/40/34
f 62/117/91 136/145/119 61/118/92
f 63/25/19 137/146/120 62/117/91
f 61/118/92 136/145/119 66/119/93
f 136/145/119 65/120/94 66/119/93
f 62/117/91 137/146/120 136/145/119
f 137/146/120 138/147/121 136/145/119
f 136/145/119 138/147/121 65/120/94
f 138/147/121 64/31/25 65/120/94
f 63/25/19 39/24/18 137/146/120
f 39/24/18 38/148/122 137/146/120
f 137/146/120 38/148/122 138/147/121
f 38/148/122 37/149/123 138/147/121
f 138/147/121 37/149/123 64/31/25
f 37/149/123 4/20/14 64/31/25
f 55/125/99 60/150/100 8/82/31
f 56/124/98 139/151/124 55/125/99
f 57/22/16 140/152/125 56/124/98
f 55/125/99 139/151/124 60/150/100
f 139/151/124 59/153/101 60/150/100
f 56/124/98 140/152/125 139/151/124
f 140/152/125 141/154/126 139/151/124
f 139/151/124 141/154/126 59/153/101
f 141/154/126 58/155/24 59/153/101
f 57/22/16 33/21/15 140/152/125
f 33/21/15 32/156/127 140/152/125
f 140/152/125 32/156/127 141/154/126
f 32/156/127 31/157/128 141/154/126
f 141/154/126 31/157/128 58/155/24
f 31/157/128 3/158/11 58/155/24
f 49/132/106 54/133/107 7/34/28
f 50/131/105 142/159/129 49/132/106
f 51/19/13 143/160/130 50/131/105
f 49/132/106 142/159/129 54/133/107
f 142/159/129 53/134/108 54/133/107
f 50/131/105 143/160/130 142/159/129
f 143/160/130 144/161/131 142/159/129
f 142/159/129 144/161/131 53/134/108
f 144/161/131 52/29/23 53/134/108
f 51/19/13 21/18/12 143/160/130
f 21/18/12 20/162/132 143/160/130
f 143/160/130 20/162/132 144/161/131
f 20/162/132 19/163/133 144/161/131
f 144/161/131 19/163/133 52/29/23
f 19/163/133 2/4/4 52/29/23
f 43/139/113 48/105/79 11/46/40
f 44/138/112 145/164/134 43/139/113
f 45/16/10 146/165/135 44/138/112
f 43/139/113 145/164/134 48/105/79
f 145/164/134 47/106/80 48/105/79
f 44/138/112 146/165/135 145/164/134
f 146/165/135 147/166/136 145/164/134
f 145/164/134 147/166/136 47/106/80
f 147/166/136 46/33/27 47/106/80
f 45/16/10 24/6/6 146/165/135
f 24/6/6 23/167/137 146/165/135
f 146/165/135 23/167/137 147/166/136
f 23/167/137 22/168/138 147/166/136
f 147/166/136 22/168/138 46/33/27
f 22/168/138 6/26/20 46/33/27
f 27/169/139 42/27/21 6/26/20
f 26/170/140 148/171/141 27/169/139
f 25/15/9 149/172/142 26/170/140
f 27/169/139 148/171/141 42/27/21
f 148/171/141 41/143/117 42/27/21
f 26/170/140 149/172/142 148/171/141
f 149/172/142 150/173/143 148/171/141
f 148/171/141 150/173/143 41/143/117
f 150/173/143 40/144/118 41/143/117
f 25/15/9 36/14/8 149/172/142
f 36/14/8 35/174/144 149/172/142
f 149/172/142 35/174/144 150/173/143
f 35/174/144 34/175/145 150/173/143
f 150/173/143 34/175/145 40/144/118
f 34/175/145 5/23/17 40/144/118
f 34/176/145 39/24/18 5/23/17
f 35/177/144 151/178/146 34/176/145
f 36/12/8 152/179/147 35/177/144
f 34/176/145 151/178/146 39/24/18
f 151/178/146 38/148/122 39/24/18
f 35/177/144 152/179/147 151/178/146
f 152/179/147 153/180/148 151/178/146
f 151/178/146 153/180/148 38/148/122
f 153/180/148 37/149/123 38/148/122
f 36/12/8 30/11/7 152/179/147
f 30/11/7 29/181/149 152/179/147
f 152/179/147 29/181/149 153/180/148
f 29/181/149 28/182/150 153/180/148
f 153/180/148 28/182/150 37/149/123
f 28/182/150 4/20/14 37/149/123
f 28/183/150 33/21/15 4/20/14
f 29/184/149 154/185/151 28/183/150
f 30/9/7 155/186/152 29/184/149
f 28/183/150 154/185/151 33/21/15
f 154/185/151 32/156/127 33/21/15
f 29/184/149 155/186/152 154/185/151
f 155/186/152 156/187/153 154/185/151
f 154/185/151 156/187/153 32/156/127
f 156/187/153 31/157/128 32/156/127
f 30/9/7 15/8/3 155/186/152
f 15/8/3 14/188/154 155/186/152
f 155/186/152 14/188/154 156/187/153
f 14/188/154 13/189/155 156/187/153
f 156/187/153 13/189/155 31/157/128
f 13/189/155 3/158/11 31/157/128
f 22/168/138 27/190/139 6/26/20
f 23/167/137 157/191/156 22/168/138
f 24/6/6 158/192/157 23/167/137
f 22/168/138 157/191/156 27/190/139
f 157/191/156 26/193/140 27/190/139
f 23/167/137 158/192/157 157/191/156
f 158/192/157 159/194/158 157/191/156
f 157/191/156 159/194/158 26/193/140
f 159/194/158 25/195/9 26/193/140
f 24/6/6 18/5/5 158/192/157
f 18/5/5 17/196/159 158/192/157
f 158/192/157 17/196/159 159/194/158
f 17/196/159 16/197/2 159/194/158
f 159/194/158 16/197/2 25/195/9
f 16/197/2 1/198/1 25/195/9
f 13/199/155 21/18/12 3/17/11
f 14/200/154 160/201/160 13/199/155
f 15/3/3 161/202/161 14/200/154
f 13/199/155 160/201/160 21/18/12
f 160/201/160 20/162/132 21/18/12
f 14/200/154 161/202/161 160/201/160
f 161/202/161 162/203/162 160/201/160
f 160/201/160 162/203/162 20/162/132
f 162/203/162 19/163/133 20/162/132
f 15/3/3 16/2/2 161/202/161
f 16/2/2 17/204/159 161/202/161
f 161/202/161 17/204/159 162/203/162
f 17/204/159 18/205/5 162/203/162
f 162/203/162 18/205/5 19/163/133
f 18/205/5 2/4/4 19/163/133
