# Blender v2.80 (sub 45) OBJ File: 'auditoriumStage.blend'
# www.blender.org
o Plane
v -800.047485 112.229950 -230.912460
v -774.872620 112.229950 2.084180
v 806.434875 112.229950 -230.912582
v 794.340149 112.229950 2.084062
v -640.425110 112.229950 -230.912476
v -488.949982 112.229950 -230.912491
v -343.811371 112.229950 -230.912491
v -203.198898 112.229950 -230.912506
v -65.302109 112.229950 -230.912521
v 71.689423 112.229950 -230.912521
v 209.586197 112.229950 -230.912537
v 350.198639 112.229950 -230.912552
v 495.337311 112.229950 -230.912552
v 646.812500 112.229950 -230.912567
v 646.812622 112.229950 31.924217
v 495.337341 112.229950 54.576752
v 350.198700 112.229950 73.679298
v 209.586212 112.229950 82.285423
v 71.689445 112.229950 88.583122
v -65.302086 112.229950 88.583138
v -203.198883 112.229950 82.285454
v -343.811371 112.229950 73.679344
v -488.949951 112.229950 54.576828
v -640.425232 112.229950 31.924314
v -800.047546 112.229950 -616.428101
v 806.434814 112.229950 -616.428223
v -640.425171 112.229950 -616.428101
v -488.950012 112.229950 -616.428101
v -343.811401 112.229950 -616.428162
v -203.198929 112.229950 -616.428162
v -65.302139 112.229950 -616.428162
v 71.689392 112.229950 -616.428162
v 209.586166 112.229950 -616.428162
v 350.198608 112.229950 -616.428162
v 495.337280 112.229950 -616.428223
v 646.812439 112.229950 -616.428223
v -938.867126 112.229950 -230.912445
v -938.867126 112.229950 2.084193
v 945.254456 112.229950 -230.912598
v 945.254456 112.229950 2.084051
v -899.398804 5.833927 188.602051
v 916.301392 5.833927 192.024399
v -1010.960327 5.833927 127.543045
v 1020.744446 5.833927 128.074448
v -774.872620 4.272270 2.084180
v 794.340149 4.272270 2.084062
v 646.812622 4.272270 31.924217
v 495.337341 4.272270 54.576752
v 350.198700 4.272270 73.679298
v 209.586212 4.272270 82.285423
v 71.689445 4.272270 88.583122
v -65.302086 4.272270 88.583138
v -203.198883 4.272270 82.285454
v -343.811371 4.272270 73.679344
v -488.949951 4.272270 54.576828
v -640.425232 4.272270 31.924314
v -899.398804 4.272270 188.602051
v 916.301392 4.272270 192.024399
v -800.047485 727.134216 -230.912460
v 806.434875 727.134216 -230.912582
v -800.047546 727.134216 -616.428101
v 806.434814 727.134216 -616.428223
v -640.425171 727.134216 -616.428101
v -488.950012 727.134216 -616.428101
v -343.811401 727.134216 -616.428162
v -203.198929 727.134216 -616.428162
v -65.302139 727.134216 -616.428162
v 71.689392 727.134216 -616.428162
v 209.586166 727.134216 -616.428162
v 350.198608 727.134216 -616.428162
v 495.337280 727.134216 -616.428223
v 646.812439 727.134216 -616.428223
v -938.867126 727.134216 -230.912445
v -938.867126 727.134216 2.084193
v 945.254456 727.134216 -230.912598
v 945.254456 727.134216 2.084051
vt 0.000000 0.000000
vt 1.000000 0.000000
vt 1.000000 0.090909
vt 0.000000 0.090909
vt 1.000000 0.181818
vt 0.000000 0.181818
vt 1.000000 0.272727
vt 0.000000 0.272727
vt 1.000000 0.363636
vt 0.000000 0.363636
vt 1.000000 0.454545
vt 0.000000 0.454545
vt 1.000000 0.545455
vt 0.000000 0.545455
vt 1.000000 0.636364
vt 0.000000 0.636364
vt 1.000000 0.727273
vt 0.000000 0.727273
vt 1.000000 0.818182
vt 0.000000 0.818182
vt 1.000000 0.909091
vt 0.000000 0.909091
vt 1.000000 1.000000
vt 0.000000 1.000000
vt 0.000000 0.545455
vt 0.000000 0.454545
vt 0.000000 0.272727
vt 0.000000 0.181818
vt 0.000000 0.909091
vt 0.000000 0.818182
vt 0.000000 0.636364
vt 0.000000 1.000000
vt 0.000000 0.363636
vt 0.000000 0.090909
vt 0.000000 0.000000
vt 0.000000 0.727273
vt 1.000000 1.000000
vt 0.000000 1.000000
vt 0.000000 0.000000
vt 1.000000 0.000000
vt 1.000000 0.000000
vt 1.000000 0.000000
vt 1.000000 1.000000
vt 1.000000 1.000000
vt 1.000000 0.090909
vt 1.000000 0.181818
vt 1.000000 0.727273
vt 1.000000 0.818182
vt 1.000000 1.000000
vt 1.000000 1.000000
vt 1.000000 0.000000
vt 1.000000 0.636364
vt 1.000000 0.545455
vt 1.000000 0.454545
vt 1.000000 0.363636
vt 1.000000 0.000000
vt 1.000000 0.272727
vt 1.000000 0.909091
vt 0.000000 0.818182
vt 0.000000 0.727273
vt 1.000000 1.000000
vt 0.000000 1.000000
vt 0.000000 0.181818
vt 0.000000 0.090909
vt 0.000000 0.909091
vt 0.000000 1.000000
vt 0.000000 0.272727
vt 0.000000 1.000000
vt 0.000000 0.363636
vt 0.000000 0.454545
vt 0.000000 0.000000
vt 0.000000 0.000000
vt 0.000000 0.000000
vt 0.000000 0.545455
vt 0.000000 0.636364
vt 1.000000 0.000000
vn 0.0000 1.0000 0.0000
vn -0.1131 0.8526 0.5103
vn 0.1250 0.8574 0.4993
vn -0.1479 0.0000 0.9890
vn 0.1305 0.0000 0.9914
vn -0.8415 0.0000 0.5403
vn -0.2167 0.0000 0.9762
vn 0.0611 0.0000 0.9981
vn 0.0456 0.0000 0.9990
vn 0.0000 0.0000 1.0000
vn -0.0456 0.0000 0.9990
vn 0.8317 0.0000 0.5553
vn -0.0611 0.0000 0.9981
vn 0.1983 0.0000 0.9802
vn -0.1305 0.0000 0.9914
vn 0.1479 0.0000 0.9890
vn -1.0000 0.0000 0.0000
vn 1.0000 0.0000 -0.0000
s off
f 1/1/1 2/2/1 24/3/1 5/4/1
f 5/4/1 24/3/1 23/5/1 6/6/1
f 6/6/1 23/5/1 22/7/1 7/8/1
f 7/8/1 22/7/1 21/9/1 8/10/1
f 8/10/1 21/9/1 20/11/1 9/12/1
f 9/12/1 20/11/1 19/13/1 10/14/1
f 10/14/1 19/13/1 18/15/1 11/16/1
f 11/16/1 18/15/1 17/17/1 12/18/1
f 12/18/1 17/17/1 16/19/1 13/20/1
f 13/20/1 16/19/1 15/21/1 14/22/1
f 14/22/1 15/21/1 4/23/1 3/24/1
f 9/12/1 10/14/1 32/25/1 31/26/1
f 6/6/1 7/8/1 29/27/1 28/28/1
f 13/20/1 14/22/1 36/29/1 35/30/1
f 10/14/1 11/16/1 33/31/1 32/25/1
f 14/22/1 3/24/1 26/32/1 36/29/1
f 7/8/1 8/10/1 30/33/1 29/27/1
f 1/1/1 5/4/1 27/34/1 25/35/1
f 11/16/1 12/18/1 34/36/1 33/31/1
f 8/10/1 9/12/1 31/26/1 30/33/1
f 5/4/1 6/6/1 28/28/1 27/34/1
f 12/18/1 13/20/1 35/30/1 34/36/1
f 3/24/1 4/23/1 40/37/1 39/38/1
f 2/2/1 1/1/1 37/39/1 38/40/1
f 2/2/2 38/40/2 43/41/2 41/42/2
f 40/37/3 4/23/3 42/43/3 44/44/3
f 23/5/4 24/3/4 56/45/4 55/46/4
f 16/19/5 17/17/5 49/47/5 48/48/5
f 42/43/6 4/23/6 46/49/6 58/50/6
f 24/3/7 2/2/7 45/51/7 56/45/7
f 17/17/8 18/15/8 50/52/8 49/47/8
f 18/15/9 19/13/9 51/53/9 50/52/9
f 19/13/10 20/11/10 52/54/10 51/53/10
f 20/11/11 21/9/11 53/55/11 52/54/11
f 2/2/12 41/42/12 57/56/12 45/51/12
f 21/9/13 22/7/13 54/57/13 53/55/13
f 4/23/14 15/21/14 47/58/14 46/49/14
f 22/7/15 23/5/15 55/46/15 54/57/15
f 15/21/16 16/19/16 48/48/16 47/58/16
f 34/36/10 35/30/10 71/59/10 70/60/10
f 39/38/17 40/37/17 76/61/17 75/62/17
f 27/34/10 28/28/10 64/63/10 63/64/10
f 35/30/10 36/29/10 72/65/10 71/59/10
f 3/24/10 39/38/10 75/62/10 60/66/10
f 28/28/10 29/27/10 65/67/10 64/63/10
f 26/32/17 3/24/17 60/66/17 62/68/17
f 29/27/10 30/33/10 66/69/10 65/67/10
f 30/33/10 31/26/10 67/70/10 66/69/10
f 1/1/18 25/35/18 61/71/18 59/72/18
f 37/39/10 1/1/10 59/72/10 73/73/10
f 31/26/10 32/25/10 68/74/10 67/70/10
f 32/25/10 33/31/10 69/75/10 68/74/10
f 36/29/10 26/32/10 62/68/10 72/65/10
f 33/31/10 34/36/10 70/60/10 69/75/10
f 38/40/18 37/39/18 73/73/18 74/76/18
f 25/35/10 27/34/10 63/64/10 61/71/10
