# Blender v2.79 (sub 0) OBJ File: ''
# www.blender.org
mtllib Dome_Solid.mtl
o Icosphere
v 117.940292 190.837662 362.989044
v -308.777710 190.837509 224.337509
v -308.777710 190.837509 -224.337509
v 117.940292 190.837662 -362.989044
v 381.669556 190.835846 0.000000
v 0.000000 426.720001 0.000000
v 405.835419 0.000000 131.861862
v 405.835419 0.000000 -131.861862
v 0.000000 0.000000 426.719971
v 250.819870 0.000000 345.223602
v -405.835419 0.000000 131.861862
v -250.819870 0.000000 345.223602
v -250.819870 0.000000 -345.223602
v -405.835419 0.000000 -131.861862
v 250.819870 0.000000 -345.223602
v 0.000000 0.000000 -426.719971
v 293.664185 224.342163 213.358688
v -112.171387 224.342773 345.221436
v -362.988464 224.342026 0.000000
v -112.171387 224.342773 -345.221436
v 293.664185 224.342163 -213.358688
v 69.323036 362.991241 213.357971
v 224.339417 362.990082 0.000000
v -181.493698 362.991150 131.861343
v -181.493698 362.991150 -131.861343
v 69.323036 362.991241 -213.357971
v 422.014191 3.888888 -137.403656
v 397.356140 198.679184 0.000000
v 261.089966 3.888916 358.897980
v 122.787651 198.681046 377.907867
v -262.774628 4.076860 357.391174
v -321.468445 198.680878 233.557800
v -422.181702 3.888896 -136.888031
v -321.468445 198.680878 -233.557800
v -0.271085 3.888909 -443.819397
v 122.787651 198.681046 -377.907867
v 305.733765 233.562576 222.127747
v -116.537979 234.731323 358.660126
v -377.907288 233.562439 0.000000
v -116.781624 233.563202 -359.410034
v 305.733765 233.562576 -222.127747
v 72.172234 377.910156 222.126984
v 233.559753 377.908936 0.000000
v 0.000025 444.258179 0.000000
v -188.953094 377.910034 137.280869
v -188.953094 377.910034 -137.280869
v 72.172234 377.910156 -222.126984
v 422.014191 3.888887 137.403656
v 2.519603 4.076857 443.590607
v -422.181702 3.888897 136.888031
v -260.651367 3.888910 -359.216644
v 261.089966 3.888916 -358.897980
vn -0.4089 -0.6617 -0.6284
vn 0.4713 -0.6617 -0.5831
vn 0.7002 -0.6617 0.2680
vn -0.0385 -0.6617 0.7488
vn -0.7240 -0.6617 0.1947
vn -0.2680 -0.9435 0.1947
vn -0.4911 -0.7947 0.3568
vn -0.4089 -0.6617 0.6284
vn 0.1024 -0.9435 0.3151
vn 0.1876 -0.7947 0.5773
vn 0.4713 -0.6617 0.5831
vn 0.3313 -0.9435 0.0000
vn 0.6071 -0.7947 0.0000
vn 0.7002 -0.6617 -0.2680
vn 0.1024 -0.9435 -0.3151
vn 0.1876 -0.7947 -0.5773
vn -0.0385 -0.6617 -0.7488
vn -0.2680 -0.9435 -0.1947
vn -0.4911 -0.7947 -0.3568
vn -0.7240 -0.6617 -0.1947
vn -0.8897 -0.3304 0.3151
vn -0.7947 -0.1876 0.5773
vn -0.5746 -0.3304 0.7488
vn 0.0247 -0.3304 0.9435
vn 0.3035 -0.1876 0.9342
vn 0.5346 -0.3304 0.7779
vn 0.9050 -0.3304 0.2680
vn 0.9822 -0.1876 0.0000
vn 0.9050 -0.3304 -0.2680
vn 0.5346 -0.3304 -0.7779
vn 0.0247 -0.3304 -0.9435
vn -0.5746 -0.3304 -0.7488
vn -0.7947 -0.1876 -0.5773
vn -0.8897 -0.3304 -0.3151
vn -0.3066 -0.1256 0.9435
vn 0.8026 -0.1256 0.5831
vn 0.8026 -0.1256 -0.5831
vn -0.3066 -0.1256 -0.9435
vn -0.9921 -0.1256 0.0000
vn 0.4089 0.6617 0.6284
vn -0.4720 0.6618 0.5824
vn -0.7002 0.6617 -0.2680
vn 0.0385 0.6617 -0.7488
vn 0.7240 0.6617 -0.1947
vn 0.2680 0.9435 -0.1947
vn 0.4911 0.7947 -0.3568
vn 0.4089 0.6617 -0.6284
vn -0.1024 0.9435 -0.3151
vn -0.1876 0.7947 -0.5773
vn -0.4713 0.6617 -0.5831
vn -0.3313 0.9435 0.0000
vn -0.6071 0.7947 0.0000
vn -0.7002 0.6617 0.2680
vn -0.1024 0.9435 0.3151
vn -0.1871 0.7958 0.5759
vn 0.0395 0.6618 0.7486
vn 0.2680 0.9435 0.1947
vn 0.4911 0.7947 0.3568
vn 0.7240 0.6617 0.1947
vn 0.8887 0.3341 -0.3141
vn 0.7944 0.1893 -0.5772
vn 0.5733 0.3341 -0.7481
vn -0.0241 0.3341 -0.9422
vn -0.3034 0.1893 -0.9339
vn -0.5343 0.3341 -0.7765
vn -0.9036 0.3341 -0.2682
vn -0.9819 0.1893 0.0000
vn -0.9036 0.3341 0.2682
vn -0.5332 0.3338 0.7773
vn -0.0255 0.3338 0.9423
vn 0.5733 0.3341 0.7481
vn 0.7944 0.1893 0.5772
vn 0.8887 0.3341 0.3141
vn 0.3066 0.1256 -0.9435
vn -0.8026 0.1256 -0.5831
vn -0.8039 0.1273 0.5810
vn 0.3088 0.1273 0.9426
vn 0.9921 0.1256 0.0000
vn -0.9024 -0.4076 0.1395
vn 0.0725 -0.9721 0.2232
vn -0.2314 -0.9728 0.0000
vn 0.0722 -0.9723 -0.2223
vn -0.0715 -0.9728 -0.2201
vn 0.2337 -0.9723 -0.0000
vn 0.1872 -0.9728 -0.1360
vn -0.1891 -0.9723 -0.1374
vn 0.1872 -0.9728 0.1360
vn 0.6481 -0.4076 0.6433
vn -0.1898 -0.9721 0.1380
usemtl None
s off
f 1//1 22//1 17//1
f 2//2 24//2 18//2
f 3//3 25//3 19//3
f 4//4 26//4 20//4
f 5//5 23//5 21//5
f 23//6 6//6 26//6
f 23//7 26//7 21//7
f 21//8 26//8 4//8
f 26//9 6//9 25//9
f 26//10 25//10 20//10
f 20//11 25//11 3//11
f 25//12 6//12 24//12
f 25//13 24//13 19//13
f 19//14 24//14 2//14
f 24//15 6//15 22//15
f 24//16 22//16 18//16
f 18//17 22//17 1//17
f 22//18 6//18 23//18
f 22//19 23//19 17//19
f 17//20 23//20 5//20
f 8//21 5//21 21//21
f 8//22 21//22 15//22
f 15//23 21//23 4//23
f 16//24 4//24 20//24
f 16//25 20//25 13//25
f 13//26 20//26 3//26
f 14//27 3//27 19//27
f 14//28 19//28 11//28
f 11//29 19//29 2//29
f 12//30 2//30 18//30
f 9//31 18//31 1//31
f 10//32 1//32 17//32
f 10//33 17//33 7//33
f 7//34 17//34 5//34
f 15//35 4//35 16//35
f 13//36 3//36 14//36
f 11//37 2//37 12//37
f 9//38 1//38 10//38
f 7//39 5//39 8//39
f 30//40 37//40 42//40
f 32//41 38//41 45//41
f 34//42 39//42 46//42
f 36//43 40//43 47//43
f 28//44 41//44 43//44
f 43//45 47//45 44//45
f 43//46 41//46 47//46
f 41//47 36//47 47//47
f 47//48 46//48 44//48
f 47//49 40//49 46//49
f 40//50 34//50 46//50
f 46//51 45//51 44//51
f 46//52 39//52 45//52
f 39//53 32//53 45//53
f 45//54 42//54 44//54
f 45//55 38//55 42//55
f 38//56 30//56 42//56
f 42//57 43//57 44//57
f 42//58 37//58 43//58
f 37//59 28//59 43//59
f 27//60 41//60 28//60
f 27//61 52//61 41//61
f 52//62 36//62 41//62
f 35//63 40//63 36//63
f 35//64 51//64 40//64
f 51//65 34//65 40//65
f 33//66 39//66 34//66
f 33//67 50//67 39//67
f 50//68 32//68 39//68
f 31//69 38//69 32//69
f 49//70 30//70 38//70
f 29//71 37//71 30//71
f 29//72 48//72 37//72
f 48//73 28//73 37//73
f 52//74 35//74 36//74
f 51//75 33//75 34//75
f 50//76 31//76 32//76
f 49//77 29//77 30//77
f 48//78 27//78 28//78
f 18//79 9//79 49//79 38//79
f 9//80 10//80 29//80 49//80
f 14//81 11//81 50//81 33//81
f 15//82 16//82 35//82 52//82
f 16//83 13//83 51//83 35//83
f 7//84 8//84 27//84 48//84
f 8//85 15//85 52//85 27//85
f 13//86 14//86 33//86 51//86
f 10//87 7//87 48//87 29//87
f 12//88 18//88 38//88 31//88
f 11//89 12//89 31//89 50//89
