# Blender v2.80 (sub 71) OBJ File: 'Octagon.blend'
# www.blender.org
o Cylinder
v -53.071136 -8.048340 -131.355637
v -54.241524 -11.951658 -134.252609
v -53.071136 8.048342 -131.355637
v -54.241524 11.951660 -134.252609
v 55.355545 -8.048342 -130.409439
v 56.576286 -11.951660 -133.285477
v 55.355545 8.048340 -130.409439
v 56.576286 11.951658 -133.285477
v 131.355606 -8.048344 -53.071152
v 134.252579 -11.951660 -54.241531
v 131.355606 8.048340 -53.071152
v 134.252579 11.951656 -54.241531
v 130.409393 -8.048343 55.355530
v 133.285461 -11.951661 56.576263
v 130.409393 8.048339 55.355530
v 133.285461 11.951657 56.576263
v 53.071133 -8.048342 131.355591
v 54.241520 -11.951660 134.252563
v 53.071133 8.048340 131.355591
v 54.241520 11.951658 134.252563
v -55.355560 -8.048340 130.409363
v -56.576302 -11.951658 133.285431
v -55.355560 8.048342 130.409363
v -56.576302 11.951660 133.285431
v -131.355606 -8.048340 53.071129
v -134.252579 -11.951656 54.241508
v -131.355606 8.048344 53.071129
v -134.252579 11.951660 54.241508
v -130.409409 -8.048339 -55.355545
v -133.285477 -11.951657 -56.576279
v -130.409409 8.048343 -55.355545
v -133.285477 11.951661 -56.576279
v 50.408619 -0.000001 -118.755295
v 48.454975 -0.000001 -114.152786
v -48.328320 0.000000 -119.616974
v -46.455395 0.000000 -114.981049
v -118.755272 0.000002 -50.408615
v -114.152779 0.000002 -48.454971
v -119.616936 0.000002 48.328308
v -114.981026 0.000002 46.455383
v -50.408634 0.000001 118.755226
v -48.454990 0.000001 114.152733
v 48.328320 -0.000000 119.616920
v 46.455395 -0.000001 114.981010
v 118.755257 -0.000002 50.408600
v 114.152763 -0.000002 48.454956
v 119.616936 -0.000002 -48.328323
v 114.981026 -0.000002 -46.455399
v 47.672672 -1.358420 -118.568207
v -45.596104 -1.358418 -119.382156
v -50.158619 -8.641581 -130.674789
v 52.431576 -8.641582 -129.779495
v -45.596104 1.358419 -119.382156
v 47.672672 1.358418 -118.568207
v 52.431576 8.641580 -129.779495
v -50.158619 8.641582 -130.674789
v -50.130692 -1.358418 -117.550064
v -116.657242 -1.358417 -52.174591
v -127.868515 -8.641580 -56.933502
v -54.693207 -8.641581 -128.842697
v -116.657242 1.358421 -52.174591
v -50.130692 1.358419 -117.550064
v -54.693207 8.641582 -128.842697
v -127.868515 8.641582 -56.933502
v -118.568192 -1.358417 -47.672668
v -119.382126 -1.358417 45.596092
v -130.674744 -8.641579 50.158607
v -129.779465 -8.641579 -52.431564
v -119.382126 1.358421 45.596092
v -118.568192 1.358421 -47.672668
v -129.779465 8.641583 -52.431580
v -130.674744 8.641582 50.158607
v -117.550034 -1.358417 50.130676
v -52.174610 -1.358418 116.657196
v -56.933514 -8.641580 127.868469
v -128.842651 -8.641579 54.693199
v -52.174610 1.358420 116.657196
v -117.550034 1.358421 50.130676
v -128.842651 8.641583 54.693199
v -56.933514 8.641582 127.868469
v -47.672688 -1.358418 118.568146
v 45.596104 -1.358419 119.382111
v 50.158615 -8.641582 130.674728
v -52.431591 -8.641580 129.779419
v 45.596104 1.358419 119.382111
v -47.672688 1.358420 118.568146
v -52.431591 8.641582 129.779419
v 50.158615 8.641581 130.674728
v 50.130692 -1.358419 117.550018
v 116.657227 -1.358421 52.174576
v 127.868500 -8.641582 56.933479
v 54.693203 -8.641582 128.842636
v 116.657227 1.358417 52.174576
v 50.130692 1.358418 117.550018
v 54.693203 8.641581 128.842636
v 127.868500 8.641579 56.933479
v 118.568176 -1.358421 47.672653
v 119.382126 -1.358421 -45.596100
v 130.674744 -8.641583 -50.158630
v 129.779449 -8.641583 52.431557
v 119.382126 1.358417 -45.596100
v 118.568176 1.358417 47.672653
v 129.779449 8.641579 52.431557
v 130.674744 8.641580 -50.158630
v 117.550034 -1.358420 -50.130692
v 52.174595 -1.358420 -116.657257
v 56.933498 -8.641582 -127.868546
v 128.842667 -8.641584 -54.693222
v 52.174595 1.358418 -116.657257
v 117.550034 1.358416 -50.130692
v 128.842667 8.641579 -54.693222
v 56.933498 8.641581 -127.868546
v -51.156425 -7.500000 -132.782303
v -51.156425 7.500001 -132.782303
v 53.466011 7.500000 -131.869278
v 53.466011 -7.500001 -131.869278
v 57.718189 -7.500001 -130.064346
v 57.718189 7.499999 -130.064346
v 131.051819 7.499998 -55.439468
v 131.051819 -7.500002 -55.439468
v 132.782272 -7.500003 -51.156433
v 132.782272 7.499998 -51.156433
v 131.869247 7.499998 53.465996
v 131.869247 -7.500002 53.465988
v 130.064301 -7.500002 57.718170
v 130.064301 7.499998 57.718170
v 55.439453 7.499999 131.051804
v 55.439453 -7.500001 131.051804
v 51.156422 -7.500001 132.782257
v 51.156422 7.500000 132.782257
v -53.466026 7.500001 131.869217
v -53.466026 -7.500000 131.869217
v -57.718204 -7.499999 130.064270
v -57.718204 7.500001 130.064270
v -131.051819 7.500002 55.439445
v -131.051819 -7.499998 55.439445
v -132.782272 -7.499998 51.156418
v -132.782272 7.500003 51.156418
v -131.869263 7.500002 -53.466003
v -131.869263 -7.499998 -53.466003
v -130.064316 -7.499998 -57.718185
v -130.064316 7.500003 -57.718185
v -55.439457 7.500001 -131.051865
v -55.439457 -7.500000 -131.051865
vt 0.419706 0.419706
vt 0.250000 0.490000
vt 0.250000 0.490000
vt 0.419706 0.419706
vt 0.419706 0.419706
vt 0.250000 0.490000
vt 0.250000 0.490000
vt 0.250000 0.490000
vt 0.250000 0.490000
vt 0.419706 0.419706
vt 0.419706 0.419706
vt 0.419706 0.419706
vt 0.250000 0.490000
vt 0.419706 0.419706
vt 0.419706 0.419706
vt 0.419706 0.419706
vt 0.419706 0.419706
vt 0.250000 0.490000
vt 0.250000 0.490000
vt 0.250000 0.490000
vt 0.250000 0.490000
vt 0.080294 0.419706
vt 0.080294 0.419706
vt 0.080294 0.419706
vt 0.080294 0.419706
vt 0.080294 0.419706
vt 0.080294 0.419706
vt 0.250000 0.490000
vt 0.080294 0.419706
vt 0.250000 0.490000
vt 0.250000 0.490000
vt 0.080294 0.419706
vt 0.080294 0.419706
vt 0.080294 0.419706
vt 0.080294 0.419706
vt 0.010000 0.250000
vt 0.010000 0.250000
vt 0.010000 0.250000
vt 0.010000 0.250000
vt 0.010000 0.250000
vt 0.010000 0.250000
vt 0.080294 0.419706
vt 0.010000 0.250000
vt 0.080294 0.419706
vt 0.080294 0.419706
vt 0.010000 0.250000
vt 0.010000 0.250000
vt 0.010000 0.250000
vt 0.010000 0.250000
vt 0.080294 0.080294
vt 0.080294 0.080294
vt 0.080294 0.080294
vt 0.080294 0.080294
vt 0.080294 0.080294
vt 0.080294 0.080294
vt 0.010000 0.250000
vt 0.080294 0.080294
vt 0.010000 0.250000
vt 0.010000 0.250000
vt 0.080294 0.080294
vt 0.080294 0.080294
vt 0.080294 0.080294
vt 0.080294 0.080294
vt 0.250000 0.010000
vt 0.250000 0.010000
vt 0.250000 0.010000
vt 0.250000 0.010000
vt 0.250000 0.010000
vt 0.250000 0.010000
vt 0.080294 0.080294
vt 0.250000 0.010000
vt 0.080294 0.080294
vt 0.080294 0.080294
vt 0.250000 0.010000
vt 0.250000 0.010000
vt 0.250000 0.010000
vt 0.250000 0.010000
vt 0.419706 0.080294
vt 0.419706 0.080294
vt 0.419706 0.080294
vt 0.419706 0.080294
vt 0.419706 0.080294
vt 0.419706 0.080294
vt 0.250000 0.010000
vt 0.419706 0.080294
vt 0.250000 0.010000
vt 0.250000 0.010000
vt 0.419706 0.080294
vt 0.419706 0.080294
vt 0.419706 0.080294
vt 0.419706 0.080294
vt 0.490000 0.250000
vt 0.490000 0.250000
vt 0.490000 0.250000
vt 0.490000 0.250000
vt 0.490000 0.250000
vt 0.490000 0.250000
vt 0.419706 0.080294
vt 0.490000 0.250000
vt 0.419706 0.080294
vt 0.419706 0.080294
vt 0.490000 0.250000
vt 0.490000 0.250000
vt 0.490000 0.250000
vt 0.490000 0.250000
vt 0.419706 0.419706
vt 0.419706 0.419706
vt 0.490000 0.250000
vt 0.419706 0.419706
vt 0.490000 0.250000
vt 0.490000 0.250000
vt 0.419706 0.419706
vt 0.250000 0.490000
vt 0.250000 0.490000
vt 0.419706 0.419706
vt 0.419706 0.419706
vt 0.419706 0.419706
vt 0.419706 0.419706
vt 0.490000 0.250000
vt 0.490000 0.250000
vt 0.490000 0.250000
vt 0.490000 0.250000
vt 0.419706 0.080294
vt 0.419706 0.080294
vt 0.419706 0.080294
vt 0.419706 0.080294
vt 0.250000 0.010000
vt 0.250000 0.010000
vt 0.250000 0.010000
vt 0.250000 0.010000
vt 0.080294 0.080294
vt 0.080294 0.080294
vt 0.080294 0.080294
vt 0.080294 0.080294
vt 0.010000 0.250000
vt 0.010000 0.250000
vt 0.010000 0.250000
vt 0.010000 0.250000
vt 0.080294 0.419706
vt 0.080294 0.419706
vt 0.080294 0.419706
vt 0.080294 0.419706
vt 0.250000 0.490000
vt 0.250000 0.490000
vn 0.0086 -0.1535 -0.9881
vn -0.0026 -0.9557 0.2945
vn 0.3452 0.7109 -0.6127
vn 0.3939 -0.8413 0.3703
vn -0.0059 0.7414 0.6710
vn -0.0060 -0.7306 0.6828
vn -0.3344 0.7109 -0.6186
vn -0.4003 -0.8413 0.3634
vn 0.0086 0.1535 -0.9881
vn -0.0026 0.9557 0.2945
vn -0.3344 -0.7109 -0.6186
vn -0.4003 0.8413 0.3634
vn -0.0059 -0.7414 0.6710
vn -0.0060 0.7306 0.6828
vn 0.3452 -0.7109 -0.6127
vn 0.3939 0.8413 0.3703
vn -0.6926 -0.1534 -0.7048
vn 0.2064 -0.9557 0.2100
vn -0.1892 0.7109 -0.6773
vn 0.5404 -0.8413 -0.0167
vn 0.4703 0.7414 0.4786
vn 0.4786 -0.7306 0.4870
vn -0.6739 0.7109 -0.2010
vn -0.0261 -0.8413 0.5400
vn -0.6926 0.1534 -0.7048
vn 0.2064 0.9557 0.2100
vn -0.6739 -0.7109 -0.2010
vn -0.0261 0.8413 0.5400
vn 0.4703 -0.7414 0.4786
vn 0.4786 0.7306 0.4870
vn -0.1892 -0.7109 -0.6773
vn 0.5404 0.8413 -0.0167
vn -0.9881 -0.1535 -0.0086
vn 0.2945 -0.9557 0.0026
vn -0.6127 0.7109 -0.3452
vn 0.3703 -0.8413 -0.3939
vn 0.6710 0.7414 0.0059
vn 0.6828 -0.7306 0.0060
vn -0.6187 0.7109 0.3344
vn 0.3634 -0.8413 0.4003
vn -0.9881 0.1535 -0.0086
vn 0.2945 0.9557 0.0026
vn -0.6187 -0.7109 0.3344
vn 0.3634 0.8413 0.4003
vn 0.6710 -0.7414 0.0059
vn 0.6828 0.7306 0.0060
vn -0.6127 -0.7109 -0.3452
vn 0.3703 0.8413 -0.3939
vn -0.7048 -0.1534 0.6926
vn 0.2100 -0.9557 -0.2064
vn -0.6773 0.7109 0.1892
vn -0.0167 -0.8413 -0.5404
vn 0.4786 0.7414 -0.4703
vn 0.4870 -0.7306 -0.4786
vn -0.2010 0.7109 0.6739
vn 0.5400 -0.8413 0.0261
vn -0.7048 0.1534 0.6926
vn 0.2100 0.9557 -0.2064
vn -0.2010 -0.7109 0.6739
vn 0.5400 0.8413 0.0261
vn 0.4786 -0.7414 -0.4703
vn 0.4870 0.7306 -0.4786
vn -0.6773 -0.7109 0.1892
vn -0.0167 0.8413 -0.5404
vn -0.0086 -0.1535 0.9881
vn 0.0026 -0.9557 -0.2945
vn -0.3452 0.7109 0.6127
vn -0.3939 -0.8413 -0.3703
vn 0.0059 0.7414 -0.6710
vn 0.0060 -0.7306 -0.6828
vn 0.3344 0.7109 0.6186
vn 0.4003 -0.8413 -0.3634
vn -0.0086 0.1535 0.9881
vn 0.0026 0.9557 -0.2945
vn 0.3344 -0.7109 0.6186
vn 0.4003 0.8413 -0.3634
vn 0.0059 -0.7414 -0.6710
vn 0.0060 0.7306 -0.6828
vn -0.3452 -0.7109 0.6127
vn -0.3939 0.8413 -0.3703
vn 0.6926 -0.1534 0.7048
vn -0.2064 -0.9557 -0.2100
vn 0.1892 0.7109 0.6773
vn -0.5404 -0.8413 0.0167
vn -0.4703 0.7414 -0.4786
vn -0.4786 -0.7306 -0.4870
vn 0.6739 0.7109 0.2010
vn 0.0261 -0.8413 -0.5400
vn 0.6926 0.1534 0.7048
vn -0.2064 0.9557 -0.2100
vn 0.6739 -0.7109 0.2010
vn 0.0261 0.8413 -0.5400
vn -0.4703 -0.7414 -0.4786
vn -0.4786 0.7306 -0.4870
vn 0.1892 -0.7109 0.6773
vn -0.5404 0.8413 0.0167
vn 0.9881 -0.1535 0.0086
vn -0.2945 -0.9557 -0.0026
vn 0.6127 0.7109 0.3452
vn -0.3703 -0.8413 0.3939
vn -0.6710 0.7414 -0.0059
vn -0.6828 -0.7306 -0.0060
vn 0.6186 0.7109 -0.3344
vn -0.3634 -0.8413 -0.4003
vn 0.9881 0.1535 0.0086
vn -0.2945 0.9557 -0.0026
vn 0.6186 -0.7109 -0.3344
vn -0.3634 0.8413 -0.4003
vn -0.6710 -0.7414 -0.0059
vn -0.6828 0.7306 -0.0060
vn 0.6127 -0.7109 0.3452
vn -0.3703 0.8413 0.3939
vn 0.7048 -0.1534 -0.6926
vn -0.2100 -0.9557 0.2064
vn 0.6773 0.7109 -0.1892
vn 0.0167 -0.8413 0.5404
vn -0.4786 0.7414 0.4703
vn -0.4870 -0.7306 0.4786
vn 0.2010 0.7109 -0.6739
vn -0.5400 -0.8413 -0.0261
vn 0.7048 0.1534 -0.6926
vn -0.2100 0.9557 0.2064
vn 0.2010 -0.7109 -0.6739
vn -0.5400 0.8413 -0.0261
vn -0.4786 -0.7414 0.4703
vn -0.4870 0.7306 0.4786
vn 0.6773 -0.7109 -0.1892
vn 0.0167 0.8413 0.5404
vn 0.5975 0.0000 0.8019
vn 0.4302 0.0000 -0.9027
vn -0.0031 -0.9348 0.3551
vn 0.0083 -0.3084 -0.9512
vn -0.6114 0.0000 0.7913
vn -0.4144 0.0000 -0.9101
vn -0.0031 0.9348 0.3551
vn 0.0083 0.3084 -0.9512
vn -0.1445 0.0000 0.9895
vn 0.9425 0.0000 -0.3341
vn -0.2533 -0.9348 0.2489
vn 0.6785 -0.3084 -0.6667
vn -0.9919 0.0000 0.1272
vn 0.3505 0.0000 -0.9366
vn -0.2533 0.9348 0.2489
vn 0.6785 0.3084 -0.6667
vn -0.8019 0.0000 0.5975
vn 0.9027 0.0000 0.4302
vn -0.3551 -0.9348 -0.0031
vn 0.9512 -0.3084 0.0083
vn -0.7913 0.0000 -0.6114
vn 0.9101 0.0000 -0.4144
vn -0.3551 0.9348 -0.0031
vn 0.9512 0.3084 0.0083
vn -0.9895 0.0000 -0.1445
vn 0.3341 0.0000 0.9425
vn -0.2489 -0.9348 -0.2533
vn 0.6667 -0.3084 0.6785
vn -0.1272 0.0000 -0.9919
vn 0.9366 0.0000 0.3505
vn -0.2489 0.9348 -0.2533
vn 0.6667 0.3084 0.6785
vn -0.5975 0.0000 -0.8019
vn -0.4302 0.0000 0.9027
vn 0.0031 -0.9348 -0.3551
vn -0.0083 -0.3084 0.9512
vn 0.6114 0.0000 -0.7913
vn 0.4144 0.0000 0.9101
vn 0.0031 0.9348 -0.3551
vn -0.0083 0.3084 0.9512
vn 0.1445 0.0000 -0.9895
vn -0.9425 0.0000 0.3341
vn 0.2533 -0.9348 -0.2489
vn -0.6785 -0.3084 0.6667
vn 0.9919 0.0000 -0.1272
vn -0.3505 0.0000 0.9366
vn 0.2533 0.9348 -0.2489
vn -0.6785 0.3084 0.6667
vn 0.8019 0.0000 -0.5975
vn -0.9027 0.0000 -0.4302
vn 0.3551 -0.9348 0.0031
vn -0.9512 -0.3084 -0.0083
vn 0.7913 0.0000 0.6114
vn -0.9101 0.0000 0.4144
vn 0.3551 0.9348 0.0031
vn -0.9512 0.3084 -0.0083
vn 0.9895 0.0000 0.1445
vn -0.3341 0.0000 -0.9425
vn 0.2489 -0.9348 0.2533
vn -0.6667 -0.3084 -0.6785
vn 0.1272 0.0000 0.9919
vn -0.9366 0.0000 -0.3505
vn 0.2489 0.9348 0.2533
vn -0.6667 0.3084 -0.6785
s off
f 49/1/1 50/2/1 35/3/1 33/4/1
f 50/2/2 49/1/2 34/5/2 36/6/2
f 50/2/3 51/7/3 1/8/3 35/3/3
f 51/7/4 50/2/4 36/6/4 2/9/4
f 51/7/5 52/10/5 5/11/5 1/8/5
f 52/10/6 51/7/6 2/9/6 6/12/6
f 52/10/7 49/1/7 33/4/7 5/11/7
f 49/1/8 52/10/8 6/12/8 34/5/8
f 53/13/9 54/14/9 33/4/9 35/3/9
f 54/14/10 53/13/10 36/6/10 34/5/10
f 54/14/11 55/15/11 7/16/11 33/4/11
f 55/15/12 54/14/12 34/5/12 8/17/12
f 55/15/13 56/18/13 3/19/13 7/16/13
f 56/18/14 55/15/14 8/17/14 4/20/14
f 56/18/15 53/13/15 35/3/15 3/19/15
f 53/13/16 56/18/16 4/20/16 36/6/16
f 57/21/17 58/22/17 37/23/17 35/3/17
f 58/22/18 57/21/18 36/6/18 38/24/18
f 58/22/19 59/25/19 29/26/19 37/23/19
f 59/25/20 58/22/20 38/24/20 30/27/20
f 59/25/21 60/28/21 1/8/21 29/26/21
f 60/28/22 59/25/22 30/27/22 2/9/22
f 60/28/23 57/21/23 35/3/23 1/8/23
f 57/21/24 60/28/24 2/9/24 36/6/24
f 61/29/25 62/30/25 35/3/25 37/23/25
f 62/30/26 61/29/26 38/24/26 36/6/26
f 62/30/27 63/31/27 3/19/27 35/3/27
f 63/31/28 62/30/28 36/6/28 4/20/28
f 63/31/29 64/32/29 31/33/29 3/19/29
f 64/32/30 63/31/30 4/20/30 32/34/30
f 64/32/31 61/29/31 37/23/31 31/33/31
f 61/29/32 64/32/32 32/34/32 38/24/32
f 65/35/33 66/36/33 39/37/33 37/23/33
f 66/36/34 65/35/34 38/24/34 40/38/34
f 66/36/35 67/39/35 25/40/35 39/37/35
f 67/39/36 66/36/36 40/38/36 26/41/36
f 67/39/37 68/42/37 29/26/37 25/40/37
f 68/42/38 67/39/38 26/41/38 30/27/38
f 68/42/39 65/35/39 37/23/39 29/26/39
f 65/35/40 68/42/40 30/27/40 38/24/40
f 69/43/41 70/44/41 37/23/41 39/37/41
f 70/44/42 69/43/42 40/38/42 38/24/42
f 70/44/43 71/45/43 31/33/43 37/23/43
f 71/45/44 70/44/44 38/24/44 32/34/44
f 71/45/45 72/46/45 27/47/45 31/33/45
f 72/46/46 71/45/46 32/34/46 28/48/46
f 72/46/47 69/43/47 39/37/47 27/47/47
f 69/43/48 72/46/48 28/48/48 40/38/48
f 73/49/49 74/50/49 41/51/49 39/37/49
f 74/50/50 73/49/50 40/38/50 42/52/50
f 74/50/51 75/53/51 21/54/51 41/51/51
f 75/53/52 74/50/52 42/52/52 22/55/52
f 75/53/53 76/56/53 25/40/53 21/54/53
f 76/56/54 75/53/54 22/55/54 26/41/54
f 76/56/55 73/49/55 39/37/55 25/40/55
f 73/49/56 76/56/56 26/41/56 40/38/56
f 77/57/57 78/58/57 39/37/57 41/51/57
f 78/58/58 77/57/58 42/52/58 40/38/58
f 78/58/59 79/59/59 27/47/59 39/37/59
f 79/59/60 78/58/60 40/38/60 28/48/60
f 79/59/61 80/60/61 23/61/61 27/47/61
f 80/60/62 79/59/62 28/48/62 24/62/62
f 80/60/63 77/57/63 41/51/63 23/61/63
f 77/57/64 80/60/64 24/62/64 42/52/64
f 81/63/65 82/64/65 43/65/65 41/51/65
f 82/64/66 81/63/66 42/52/66 44/66/66
f 82/64/67 83/67/67 17/68/67 43/65/67
f 83/67/68 82/64/68 44/66/68 18/69/68
f 83/67/69 84/70/69 21/54/69 17/68/69
f 84/70/70 83/67/70 18/69/70 22/55/70
f 84/70/71 81/63/71 41/51/71 21/54/71
f 81/63/72 84/70/72 22/55/72 42/52/72
f 85/71/73 86/72/73 41/51/73 43/65/73
f 86/72/74 85/71/74 44/66/74 42/52/74
f 86/72/75 87/73/75 23/61/75 41/51/75
f 87/73/76 86/72/76 42/52/76 24/62/76
f 87/73/77 88/74/77 19/75/77 23/61/77
f 88/74/78 87/73/78 24/62/78 20/76/78
f 88/74/79 85/71/79 43/65/79 19/75/79
f 85/71/80 88/74/80 20/76/80 44/66/80
f 89/77/81 90/78/81 45/79/81 43/65/81
f 90/78/82 89/77/82 44/66/82 46/80/82
f 90/78/83 91/81/83 13/82/83 45/79/83
f 91/81/84 90/78/84 46/80/84 14/83/84
f 91/81/85 92/84/85 17/68/85 13/82/85
f 92/84/86 91/81/86 14/83/86 18/69/86
f 92/84/87 89/77/87 43/65/87 17/68/87
f 89/77/88 92/84/88 18/69/88 44/66/88
f 93/85/89 94/86/89 43/65/89 45/79/89
f 94/86/90 93/85/90 46/80/90 44/66/90
f 94/86/91 95/87/91 19/75/91 43/65/91
f 95/87/92 94/86/92 44/66/92 20/76/92
f 95/87/93 96/88/93 15/89/93 19/75/93
f 96/88/94 95/87/94 20/76/94 16/90/94
f 96/88/95 93/85/95 45/79/95 15/89/95
f 93/85/96 96/88/96 16/90/96 46/80/96
f 97/91/97 98/92/97 47/93/97 45/79/97
f 98/92/98 97/91/98 46/80/98 48/94/98
f 98/92/99 99/95/99 9/96/99 47/93/99
f 99/95/100 98/92/100 48/94/100 10/97/100
f 99/95/101 100/98/101 13/82/101 9/96/101
f 100/98/102 99/95/102 10/97/102 14/83/102
f 100/98/103 97/91/103 45/79/103 13/82/103
f 97/91/104 100/98/104 14/83/104 46/80/104
f 101/99/105 102/100/105 45/79/105 47/93/105
f 102/100/106 101/99/106 48/94/106 46/80/106
f 102/100/107 103/101/107 15/89/107 45/79/107
f 103/101/108 102/100/108 46/80/108 16/90/108
f 103/101/109 104/102/109 11/103/109 15/89/109
f 104/102/110 103/101/110 16/90/110 12/104/110
f 104/102/111 101/99/111 47/93/111 11/103/111
f 101/99/112 104/102/112 12/104/112 48/94/112
f 105/105/113 106/106/113 33/4/113 47/93/113
f 106/106/114 105/105/114 48/94/114 34/5/114
f 106/106/115 107/107/115 5/11/115 33/4/115
f 107/107/116 106/106/116 34/5/116 6/12/116
f 107/107/117 108/108/117 9/96/117 5/11/117
f 108/108/118 107/107/118 6/12/118 10/97/118
f 108/108/119 105/105/119 47/93/119 9/96/119
f 105/105/120 108/108/120 10/97/120 48/94/120
f 109/109/121 110/110/121 47/93/121 33/4/121
f 110/110/122 109/109/122 34/5/122 48/94/122
f 110/110/123 111/111/123 11/103/123 47/93/123
f 111/111/124 110/110/124 48/94/124 12/104/124
f 111/111/125 112/112/125 7/16/125 11/103/125
f 112/112/126 111/111/126 12/104/126 8/17/126
f 112/112/127 109/109/127 33/4/127 7/16/127
f 109/109/128 112/112/128 8/17/128 34/5/128
f 113/113/129 114/114/129 3/19/129 1/8/129
f 114/114/130 113/113/130 2/9/130 4/20/130
f 114/114/131 115/115/131 7/16/131 3/19/131
f 115/115/132 114/114/132 4/20/132 8/17/132
f 115/115/133 116/116/133 5/11/133 7/16/133
f 116/116/134 115/115/134 8/17/134 6/12/134
f 116/116/135 113/113/135 1/8/135 5/11/135
f 113/113/136 116/116/136 6/12/136 2/9/136
f 117/117/137 118/118/137 7/16/137 5/11/137
f 118/118/138 117/117/138 6/12/138 8/17/138
f 118/118/139 119/119/139 11/103/139 7/16/139
f 119/119/140 118/118/140 8/17/140 12/104/140
f 119/119/141 120/120/141 9/96/141 11/103/141
f 120/120/142 119/119/142 12/104/142 10/97/142
f 120/120/143 117/117/143 5/11/143 9/96/143
f 117/117/144 120/120/144 10/97/144 6/12/144
f 121/121/145 122/122/145 11/103/145 9/96/145
f 122/122/146 121/121/146 10/97/146 12/104/146
f 122/122/147 123/123/147 15/89/147 11/103/147
f 123/123/148 122/122/148 12/104/148 16/90/148
f 123/123/149 124/124/149 13/82/149 15/89/149
f 124/124/150 123/123/150 16/90/150 14/83/150
f 124/124/151 121/121/151 9/96/151 13/82/151
f 121/121/152 124/124/152 14/83/152 10/97/152
f 125/125/153 126/126/153 15/89/153 13/82/153
f 126/126/154 125/125/154 14/83/154 16/90/154
f 126/126/155 127/127/155 19/75/155 15/89/155
f 127/127/156 126/126/156 16/90/156 20/76/156
f 127/127/157 128/128/157 17/68/157 19/75/157
f 128/128/158 127/127/158 20/76/158 18/69/158
f 128/128/159 125/125/159 13/82/159 17/68/159
f 125/125/160 128/128/160 18/69/160 14/83/160
f 129/129/161 130/130/161 19/75/161 17/68/161
f 130/130/162 129/129/162 18/69/162 20/76/162
f 130/130/163 131/131/163 23/61/163 19/75/163
f 131/131/164 130/130/164 20/76/164 24/62/164
f 131/131/165 132/132/165 21/54/165 23/61/165
f 132/132/166 131/131/166 24/62/166 22/55/166
f 132/132/167 129/129/167 17/68/167 21/54/167
f 129/129/168 132/132/168 22/55/168 18/69/168
f 133/133/169 134/134/169 23/61/169 21/54/169
f 134/134/170 133/133/170 22/55/170 24/62/170
f 134/134/171 135/135/171 27/47/171 23/61/171
f 135/135/172 134/134/172 24/62/172 28/48/172
f 135/135/173 136/136/173 25/40/173 27/47/173
f 136/136/174 135/135/174 28/48/174 26/41/174
f 136/136/175 133/133/175 21/54/175 25/40/175
f 133/133/176 136/136/176 26/41/176 22/55/176
f 137/137/177 138/138/177 27/47/177 25/40/177
f 138/138/178 137/137/178 26/41/178 28/48/178
f 138/138/179 139/139/179 31/33/179 27/47/179
f 139/139/180 138/138/180 28/48/180 32/34/180
f 139/139/181 140/140/181 29/26/181 31/33/181
f 140/140/182 139/139/182 32/34/182 30/27/182
f 140/140/183 137/137/183 25/40/183 29/26/183
f 137/137/184 140/140/184 30/27/184 26/41/184
f 141/141/185 142/142/185 31/33/185 29/26/185
f 142/142/186 141/141/186 30/27/186 32/34/186
f 142/142/187 143/143/187 3/19/187 31/33/187
f 143/143/188 142/142/188 32/34/188 4/20/188
f 143/143/189 144/144/189 1/8/189 3/19/189
f 144/144/190 143/143/190 4/20/190 2/9/190
f 144/144/191 141/141/191 29/26/191 1/8/191
f 141/141/192 144/144/192 2/9/192 30/27/192
